<?xml version="1.0" encoding="iso-8859-1"?>
<!-- Generator: Adobe Illustrator 18.1.1, SVG Export Plug-In . SVG Version: 6.00 Build 0)  -->
<svg version="1.1" id="Capa_1" xmlns="http://www.w3.org/2000/svg" xmlns:xlink="http://www.w3.org/1999/xlink" x="0px" y="0px"
	 viewBox="0 0 24.873 24.873" style="enable-background:new 0 0 24.873 24.873;" xml:space="preserve">
<g>
	<path style="fill:#030104;" d="M24.846,13.986L21.832,1.532c-0.059-0.149-0.204-0.25-0.364-0.25H3.497
		c-0.161,0-0.306,0.101-0.365,0.25L0.025,14.128C0.009,14.172,0,14.219,0,14.269v8.932c0,0.216,0.174,0.39,0.389,0.39h24.094
		c0.215,0,0.39-0.174,0.39-0.39V14.13C24.872,14.081,24.864,14.032,24.846,13.986z M16.9,13.953c-0.216,0-0.39,0.185-0.39,0.412
		V17.4c0,0.567-0.439,1.03-0.979,1.03H9.339c-0.537,0-0.976-0.463-0.976-1.03v-3.035c0-0.227-0.176-0.412-0.39-0.412H3.618
		L5.537,3.871h14.037l1.728,10.082H16.9z"/>
</g>
<g>
</g>
<g>
</g>
<g>
</g>
<g>
</g>
<g>
</g>
<g>
</g>
<g>
</g>
<g>
</g>
<g>
</g>
<g>
</g>
<g>
</g>
<g>
</g>
<g>
</g>
<g>
</g>
<g>
</g>
</svg>
