<?xml version="1.0" encoding="iso-8859-1"?>
<!-- Generator: Adobe Illustrator 19.0.0, SVG Export Plug-In . SVG Version: 6.00 Build 0)  -->
<svg version="1.1" id="Capa_1" xmlns="http://www.w3.org/2000/svg" xmlns:xlink="http://www.w3.org/1999/xlink" x="0px" y="0px"
	 viewBox="0 0 490 490" style="enable-background:new 0 0 490 490;" xml:space="preserve">
<g>
	<polygon points="58.663,313.544 115.868,340.499 115.868,323.08 78.084,305.187 115.868,287.767 115.868,270.462 58.663,297.418 	
		"/>
	<polygon points="127.755,365.102 144.35,365.102 193.787,257.163 177.072,257.163 	"/>
	<polygon points="205.56,287.767 243.344,305.187 205.56,323.08 205.56,340.499 262.765,313.544 262.765,297.418 205.56,270.462 	
		"/>
	<path d="M485.374,83.869L404.577,3.082C402.688,1.179,400.071,0,397.178,0H180.538c-5.758,0-10.426,4.664-10.426,10.426v84.208
		H11.963c-5.757,0-10.426,4.663-10.426,10.426v374.515c0,5.763,4.669,10.426,10.426,10.426h297.5
		c5.757,0,10.426-4.663,10.426-10.426v-84.218h158.149c5.758,0,10.426-4.664,10.426-10.426V91.275
		C488.463,88.376,487.28,85.758,485.374,83.869z M407.603,35.593l45.125,45.256h-45.125V35.593z M299.037,469.149H22.388V115.485
		h195.789l0.005,70.434c0,5.763,4.669,10.426,10.426,10.426h70.429V469.149z M239.031,130.23l44.87,45.264h-44.866L239.031,130.23z
		 M467.612,374.505H319.888V185.919c0-2.898-1.183-5.517-3.089-7.406l-80.783-80.782c-1.89-1.911-4.512-3.097-7.413-3.097h-37.639
		V20.851h195.788v70.423c0,5.763,4.669,10.426,10.426,10.426h70.434V374.505z"/>
</g>
<g>
</g>
<g>
</g>
<g>
</g>
<g>
</g>
<g>
</g>
<g>
</g>
<g>
</g>
<g>
</g>
<g>
</g>
<g>
</g>
<g>
</g>
<g>
</g>
<g>
</g>
<g>
</g>
<g>
</g>
</svg>
