<?xml version="1.0" encoding="iso-8859-1"?>
<!-- Generator: Adobe Illustrator 19.0.0, SVG Export Plug-In . SVG Version: 6.00 Build 0)  -->
<svg version="1.1" id="Layer_1" xmlns="http://www.w3.org/2000/svg" xmlns:xlink="http://www.w3.org/1999/xlink" x="0px" y="0px"
	 viewBox="0 0 503.56 503.56" style="enable-background:new 0 0 503.56 503.56;" xml:space="preserve">
<g transform="translate(1 1)">
	<g>
		<g>
			<path d="M493.08,181.66c-8.533-10.24-20.48-16.213-33.28-16.213c0-18.773-15.36-34.133-34.133-34.133h-17.892
				c-3.86-19.681-20.878-34.133-41.841-34.133H267.8l-40.107-47.787c-1.707-2.56-4.267-3.413-6.827-3.413h-153.6
				c-18.773,0-34.133,15.36-34.133,34.133v51.2C14.36,131.314-1,146.674-1,165.447v256c0,18.773,15.36,34.133,34.133,34.133h392.533
				c18.773,0,34.133-15.36,34.133-34.133v-5.973L501.613,217.5C504.173,204.7,501.613,191.9,493.08,181.66z M50.2,80.114
				c0-9.387,7.68-17.067,17.067-17.067H216.6l40.107,47.787c1.707,2.56,4.267,3.413,6.827,3.413h102.4
				c11.093,0,20.48,6.827,23.893,17.067H50.2V80.114z M442.733,421.447c0,9.387-7.68,17.067-17.067,17.067H33.133
				c-9.387,0-17.067-7.68-17.067-17.067v-256c0-9.387,7.68-17.067,17.067-17.067h8.533h358.4h25.6
				c9.387,0,17.067,7.68,17.067,17.067v8.533v238.933V421.447z M485.4,213.234l-25.6,118.613V182.514
				c7.68,0,15.36,3.413,20.48,9.387S487.107,205.554,485.4,213.234z"/>
			<path d="M161.133,182.514h-102.4c-5.12,0-8.533,3.413-8.533,8.533s3.413,8.533,8.533,8.533h102.4c5.12,0,8.533-3.413,8.533-8.533
				S166.253,182.514,161.133,182.514z"/>
			<path d="M161.133,216.647h-102.4c-5.12,0-8.533,3.413-8.533,8.533c0,5.12,3.413,8.533,8.533,8.533h102.4
				c5.12,0,8.533-3.413,8.533-8.533C169.667,220.06,166.253,216.647,161.133,216.647z"/>
		</g>
	</g>
</g>
<g>
</g>
<g>
</g>
<g>
</g>
<g>
</g>
<g>
</g>
<g>
</g>
<g>
</g>
<g>
</g>
<g>
</g>
<g>
</g>
<g>
</g>
<g>
</g>
<g>
</g>
<g>
</g>
<g>
</g>
</svg>
