<?xml version="1.0" encoding="iso-8859-1"?>
<!-- Generator: Adobe Illustrator 19.0.0, SVG Export Plug-In . SVG Version: 6.00 Build 0)  -->
<svg version="1.1" id="Capa_1" xmlns="http://www.w3.org/2000/svg" xmlns:xlink="http://www.w3.org/1999/xlink" x="0px" y="0px"
	 viewBox="0 0 489.988 489.988" style="enable-background:new 0 0 489.988 489.988;" xml:space="preserve">
<g>
	<path d="M438.681,104.324L337.358,3.015C337.298,2.954,334.811,0,329.746,0H58.465c-5.624,0-10.182,4.553-10.182,10.182v469.625
		c0,5.627,4.558,10.182,10.182,10.182h373.059c5.624,0,10.182-4.555,10.182-10.182V111.564
		C441.706,109.689,441.278,106.97,438.681,104.324z M406.939,101.382h-66.626l-0.005-66.621L406.939,101.382z M421.342,469.624
		H68.646V20.364h251.298h0l0.004,91.2c0,5.627,4.56,10.182,10.182,10.182h91.21l0,0V469.624z"/>
	<polygon points="117.022,271.609 188.756,305.41 188.756,283.566 141.377,261.128 188.756,239.285 188.756,217.585 
		117.022,251.387 	"/>
	<polygon points="203.664,336.263 224.474,336.263 286.467,200.907 265.506,200.907 	"/>
	<polygon points="301.23,239.285 348.611,261.128 301.23,283.566 301.23,305.41 372.964,271.609 372.964,251.387 301.23,217.585 	
		"/>
</g>
<g>
</g>
<g>
</g>
<g>
</g>
<g>
</g>
<g>
</g>
<g>
</g>
<g>
</g>
<g>
</g>
<g>
</g>
<g>
</g>
<g>
</g>
<g>
</g>
<g>
</g>
<g>
</g>
<g>
</g>
</svg>
