<svg xmlns="http://www.w3.org/2000/svg" xmlns:xlink="http://www.w3.org/1999/xlink" xmlns:lucid="lucid" width="2717.17" height="2156.14"><g transform="translate(98.74015748031496 433.38582677165357)" lucid:page-tab-id="bVNcmNcKFNF7"><path d="M-2542.93-3445.03h5335.86v7140.06h-5335.86z" fill="#fff"/><path d="M-78.74-407.4c0-3.3 2.7-6 6-6h2665.17c3.3 0 6 2.7 6 6v2104.16c0 3.3-2.7 6-6 6H-72.74c-3.3 0-6-2.7-6-6z" stroke="#000" stroke-width="4" fill="#e5e5e5"/><path d="M-9.84-377.86c0-3.3 2.68-6 6-6h2202.4c3.32 0 6 2.7 6 6V1167c0 3.32-2.68 6-6 6H-3.83c-3.32 0-6-2.68-6-6z" stroke="#7ab648" stroke-width="4" fill="#c7e8ac"/><path d="M423.23-338.5c0-3.3 2.68-6 6-6h637.6c3.32 0 6 2.7 6 6v314.56c0 3.32-2.68 6-6 6h-637.6c-3.32 0-6-2.68-6-6z" stroke="#834187" stroke-width="4" fill="#d1bcd2"/><path d="M1151.57 1167.42c0-3.32 2.7-6 6-6h1306.9c3.32 0 6 2.68 6 6v391.54c0 3.3-2.68 6-6 6h-1306.9c-3.3 0-6-2.7-6-6z" stroke="#fcc438" stroke-width="4" fill="#ffeca9"/><path d="M1497.04 1267.42c0-3.32 2.7-6 6-6h321.67c3.32 0 6 2.68 6 6v412.97c0 3.3-2.68 6-6 6h-321.66c-3.3 0-6-2.7-6-6z" stroke="#0c7cba" stroke-width="4" fill="#c1e4f7"/><path d="M2313 49.2h240v60h-240z" fill="none"/><use xlink:href="#a" transform="matrix(1,0,0,1,2312.992125984252,49.212598425196916) translate(5.706018518518533 33.333333333333336)"/><use xlink:href="#b" transform="matrix(1,0,0,1,2312.992125984252,49.212598425196916) translate(66.58564814814815 83.33333333333334)"/><path d="M2204.57 1446.85h240v60h-240z" fill="none"/><use xlink:href="#c" transform="matrix(1,0,0,1,2204.566771554651,1446.8503937007874) translate(18.784722222222243 33.333333333333336)"/><use xlink:href="#b" transform="matrix(1,0,0,1,2204.566771554651,1446.8503937007874) translate(66.58564814814815 83.33333333333334)"/><path d="M1938.98 501.97h240v90.7h-240z" fill="none"/><use xlink:href="#d" transform="matrix(1,0,0,1,1938.976377952756,501.9685039370079) translate(-1.2384259259259238 53.833333333333336)"/><path d="M1541.85 1594.5h240v60h-240z" fill="none"/><use xlink:href="#e" transform="matrix(1,0,0,1,1541.8518718814405,1594.488188976378) translate(74.97685185185186 38.333333333333336)"/><path d="M260.93 327.96c-1.9-2.27-4.46-3.54-7.36-3.54 0-4.17-3.34-7.6-7.58-7.6h-3.9c-.9-4.37-4.7-7.54-9.27-7.54H211.1l-8.93-10.6c-.33-.55-.9-.74-1.45-.74h-34c-4.24 0-7.58 3.45-7.58 7.53v11.34c-4.13 0-7.58 3.45-7.58 7.62v56.68c0 4.08 3.45 7.53 7.58 7.53H246c4.23 0 7.57-3.45 7.57-7.53v-1.36l9.25-43.8c.56-2.9 0-5.7-1.9-7.98zm-98-22.5c0-2.08 1.67-3.7 3.8-3.7h33l8.9 10.5c.34.65.9.83 1.46.83h22.73c2.46 0 4.46 1.44 5.24 3.7h-75.14v-11.33zm86.85 75.64c0 2.1-1.67 3.72-3.8 3.72h-86.84c-2.12 0-3.8-1.63-3.8-3.72v-56.68c0-2.08 1.68-3.8 3.8-3.8H246c2.1 0 3.78 1.72 3.78 3.8v56.68zm9.48-46.16l-5.7 26.3v-33.1c1.68 0 3.47.82 4.58 2.1 1.12 1.35 1.45 3.07 1.12 4.7z" stroke="#000" stroke-opacity="0" stroke-width=".3"/><path d="M187.46 328.14h-22.64c-1.22 0-1.9.82-1.9 1.9 0 1.2.68 1.9 1.9 1.9h22.64c1.1 0 1.9-.7 1.9-1.9 0-1.08-.8-1.9-1.9-1.9zM187.46 335.76h-22.64c-1.22 0-1.9.73-1.9 1.8 0 1.2.68 1.92 1.9 1.92h22.64c1.1 0 1.9-.73 1.9-1.9 0-1.1-.8-1.82-1.9-1.82z" stroke="#000" stroke-opacity="0" stroke-width=".3"/><path d="M118.1 407.68h178.4v44.6H118.1z" fill="none"/><use xlink:href="#f" transform="matrix(1,0,0,1,118.11023622047243,407.67810181802525) translate(-103.49768518518522 33.333333333333336)"/><path d="M501.97 173h178.38v44.6H501.97z" fill="none"/><use xlink:href="#g" transform="matrix(1,0,0,1,501.9685039370079,173.00279519419502) translate(37.47453703703704 33.333333333333336)"/><path d="M644.8 79.23c-1.9-2.27-4.47-3.54-7.37-3.54 0-4.18-3.35-7.62-7.58-7.62h-3.9c-.9-4.36-4.7-7.53-9.26-7.53h-21.75l-8.92-10.6c-.33-.56-.9-.74-1.45-.74h-34c-4.24 0-7.58 3.46-7.58 7.54v11.34c-4.13 0-7.58 3.44-7.58 7.6v56.7c0 4.07 3.45 7.52 7.58 7.52h86.85c4.23 0 7.58-3.45 7.58-7.53V131l9.25-43.8c.56-2.9 0-5.7-1.9-7.97zm-98-22.5c0-2.08 1.66-3.7 3.78-3.7h33l8.92 10.5c.33.65.9.83 1.45.83h22.74c2.44 0 4.45 1.45 5.23 3.72H546.8V56.74zm86.84 75.64c0 2.1-1.67 3.72-3.8 3.72H543c-2.12 0-3.8-1.64-3.8-3.73V75.7c0-2.1 1.68-3.82 3.8-3.82H629.86c2.1 0 3.78 1.73 3.78 3.8V132.4zm9.47-46.16l-5.67 26.3V79.4c1.67 0 3.46.83 4.57 2.1 1.1 1.36 1.45 3.08 1.1 4.7z" stroke="#000" stroke-opacity="0" stroke-width=".3"/><path d="M571.32 79.4h-22.64c-1.22 0-1.9.83-1.9 1.92 0 1.17.68 1.9 1.9 1.9h22.64c1.1 0 1.9-.73 1.9-1.9 0-1.1-.8-1.9-1.9-1.9zM571.32 87.03h-22.64c-1.22 0-1.9.72-1.9 1.8 0 1.2.68 1.92 1.9 1.92h22.64c1.1 0 1.9-.73 1.9-1.9 0-1.1-.8-1.82-1.9-1.82zM995.04 327.96c-1.9-2.27-4.46-3.54-7.36-3.54 0-4.17-3.34-7.6-7.58-7.6h-3.9c-.9-4.37-4.68-7.54-9.25-7.54H945.2l-8.9-10.6c-.35-.55-.9-.74-1.46-.74h-34c-4.24 0-7.6 3.45-7.6 7.53v11.34c-4.1 0-7.57 3.45-7.57 7.62v56.68c0 4.08 3.46 7.53 7.58 7.53h86.85c4.24 0 7.58-3.45 7.58-7.53v-1.36l9.26-43.8c.55-2.9 0-5.7-1.9-7.98zm-98-22.5c0-2.08 1.67-3.7 3.8-3.7h33l8.9 10.5c.35.65.9.83 1.46.83h22.75c2.45 0 4.46 1.44 5.24 3.7h-75.16v-11.33zm86.85 75.64c0 2.1-1.68 3.72-3.8 3.72h-86.85c-2.12 0-3.8-1.63-3.8-3.72v-56.68c0-2.08 1.68-3.8 3.8-3.8h86.85c2.12 0 3.8 1.72 3.8 3.8v56.68zm9.47-46.16l-5.7 26.3v-33.1c1.68 0 3.47.82 4.58 2.1 1.12 1.35 1.45 3.07 1.12 4.7z" stroke="#000" stroke-opacity="0" stroke-width=".3"/><path d="M921.57 328.14h-22.63c-1.23 0-1.9.82-1.9 1.9 0 1.2.67 1.9 1.9 1.9h22.63c1.1 0 1.9-.7 1.9-1.9 0-1.08-.8-1.9-1.9-1.9zM921.57 335.76h-22.63c-1.23 0-1.9.73-1.9 1.8 0 1.2.67 1.92 1.9 1.92h22.63c1.1 0 1.9-.73 1.9-1.9 0-1.1-.8-1.82-1.9-1.82z" stroke="#000" stroke-opacity="0" stroke-width=".3"/><path d="M852.22 407.68h178.4v44.6H852.2z" fill="none"/><use xlink:href="#h" transform="matrix(1,0,0,1,852.2221155406692,407.67810181802525) translate(-87.2939814814815 33.333333333333336)"/><path d="M615.26 650.1c-1.9-2.27-4.46-3.54-7.36-3.54 0-4.17-3.34-7.62-7.58-7.62h-3.9c-.9-4.35-4.68-7.53-9.26-7.53h-21.74l-8.92-10.6c-.33-.54-.9-.72-1.44-.72h-34c-4.25 0-7.6 3.44-7.6 7.53v11.34c-4.12 0-7.57 3.45-7.57 7.62v56.68c0 4.08 3.44 7.53 7.57 7.53h86.85c4.24 0 7.58-3.45 7.58-7.53v-1.36l9.26-43.8c.55-2.9 0-5.72-1.9-7.98zm-98-22.5c0-2.08 1.67-3.7 3.8-3.7h33l8.9 10.5c.35.64.9.82 1.46.82h22.74c2.46 0 4.46 1.45 5.24 3.72h-75.14V627.6zm86.85 75.64c0 2.08-1.66 3.72-3.78 3.72h-86.85c-2.12 0-3.8-1.64-3.8-3.72v-56.68c0-2.1 1.68-3.8 3.8-3.8H600.33c2.1 0 3.78 1.7 3.78 3.8V703.23zm9.5-46.16l-5.7 26.3v-33.1c1.67 0 3.46.8 4.57 2.08 1.12 1.36 1.45 3.1 1.12 4.72z" stroke="#000" stroke-opacity="0" stroke-width=".3"/><path d="M541.8 650.28h-22.64c-1.23 0-1.9.8-1.9 1.9 0 1.18.67 1.9 1.9 1.9h22.63c1.1 0 1.88-.72 1.88-1.9 0-1.1-.78-1.9-1.9-1.9zM541.8 657.9h-22.64c-1.23 0-1.9.72-1.9 1.8 0 1.2.67 1.9 1.9 1.9h22.63c1.1 0 1.88-.7 1.88-1.9 0-1.08-.78-1.8-1.9-1.8z" stroke="#000" stroke-opacity="0" stroke-width=".3"/><path d="M472.44 729.8h178.4v44.6h-178.4z" fill="none"/><use xlink:href="#i" transform="matrix(1,0,0,1,472.4409448818898,729.8130779307952) translate(23.585648148148152 33.333333333333336)"/><use xlink:href="#j" transform="matrix(1,0,0,1,472.4409448818898,729.8130779307952) translate(132.2662037037037 33.333333333333336)"/><path d="M999.64 650.1c-1.9-2.27-4.46-3.54-7.35-3.54 0-4.17-3.36-7.62-7.6-7.62h-3.9c-.9-4.35-4.68-7.53-9.25-7.53H949.8l-8.9-10.6c-.35-.54-.9-.72-1.46-.72h-34c-4.24 0-7.6 3.44-7.6 7.53v11.34c-4.1 0-7.57 3.45-7.57 7.62v56.68c0 4.08 3.46 7.53 7.58 7.53h86.85c4.24 0 7.6-3.45 7.6-7.53v-1.36l9.24-43.8c.56-2.9 0-5.72-1.9-7.98zm-98-22.5c0-2.08 1.68-3.7 3.8-3.7h33l8.92 10.5c.33.64.9.82 1.44.82h22.75c2.45 0 4.46 1.45 5.24 3.72h-75.16V627.6zm86.85 75.64c0 2.08-1.68 3.72-3.8 3.72h-86.85c-2.1 0-3.8-1.64-3.8-3.72v-56.68c0-2.1 1.7-3.8 3.8-3.8h86.85c2.12 0 3.8 1.7 3.8 3.8V703.23zm9.47-46.16l-5.68 26.3v-33.1c1.66 0 3.44.8 4.56 2.08 1.1 1.36 1.45 3.1 1.1 4.72z" stroke="#000" stroke-opacity="0" stroke-width=".3"/><path d="M926.17 650.28h-22.63c-1.23 0-1.9.8-1.9 1.9 0 1.18.67 1.9 1.9 1.9h22.63c1.12 0 1.9-.72 1.9-1.9 0-1.1-.78-1.9-1.9-1.9zM926.17 657.9h-22.63c-1.23 0-1.9.72-1.9 1.8 0 1.2.67 1.9 1.9 1.9h22.63c1.12 0 1.9-.7 1.9-1.9 0-1.08-.78-1.8-1.9-1.8z" stroke="#000" stroke-opacity="0" stroke-width=".3"/><path d="M856.83 729.8h178.38v44.6H856.84z" fill="none"/><use xlink:href="#i" transform="matrix(1,0,0,1,856.8250843661906,729.8130779307952) translate(23.585648148148152 33.333333333333336)"/><use xlink:href="#k" transform="matrix(1,0,0,1,856.8250843661906,729.8130779307952) translate(132.2662037037037 33.333333333333336)"/><path d="M1461.48 650.1c-1.9-2.27-4.46-3.54-7.36-3.54 0-4.17-3.34-7.62-7.58-7.62h-3.9c-.9-4.35-4.7-7.53-9.26-7.53h-21.74l-8.92-10.6c-.33-.54-.9-.72-1.45-.72h-34c-4.24 0-7.58 3.44-7.58 7.53v11.34c-4.14 0-7.6 3.45-7.6 7.62v56.68c0 4.08 3.46 7.53 7.6 7.53h86.84c4.24 0 7.58-3.45 7.58-7.53v-1.36l9.25-43.8c.56-2.9 0-5.72-1.9-7.98zm-98-22.5c0-2.08 1.67-3.7 3.8-3.7h33l8.9 10.5c.34.64.9.82 1.46.82h22.74c2.46 0 4.46 1.45 5.24 3.72h-75.14V627.6zm86.85 75.64c0 2.08-1.67 3.72-3.8 3.72h-86.84c-2.13 0-3.8-1.64-3.8-3.72v-56.68c0-2.1 1.67-3.8 3.8-3.8h86.85c2.1 0 3.78 1.7 3.78 3.8V703.23zm9.48-46.16l-5.68 26.3v-33.1c1.67 0 3.46.8 4.57 2.08 1.1 1.36 1.44 3.1 1.1 4.72z" stroke="#000" stroke-opacity="0" stroke-width=".3"/><path d="M1388 650.28h-22.63c-1.22 0-1.9.8-1.9 1.9 0 1.18.68 1.9 1.9 1.9H1388c1.12 0 1.9-.72 1.9-1.9 0-1.1-.78-1.9-1.9-1.9zM1388 657.9h-22.63c-1.22 0-1.9.72-1.9 1.8 0 1.2.68 1.9 1.9 1.9H1388c1.12 0 1.9-.7 1.9-1.9 0-1.08-.78-1.8-1.9-1.8z" stroke="#000" stroke-opacity="0" stroke-width=".3"/><path d="M1318.66 729.8h178.38v44.6h-178.38z" fill="none"/><use xlink:href="#i" transform="matrix(1,0,0,1,1318.6594720163419,729.8130779307952) translate(23.585648148148152 33.333333333333336)"/><use xlink:href="#l" transform="matrix(1,0,0,1,1318.6594720163419,729.8130779307952) translate(132.2662037037037 33.333333333333336)"/><path d="M1178.03 972.94c-1.9-2.27-4.46-3.54-7.36-3.54 0-4.17-3.35-7.62-7.58-7.62h-3.9c-.9-4.35-4.7-7.53-9.27-7.53h-21.74l-8.93-10.6c-.33-.55-.9-.73-1.45-.73h-34c-4.24 0-7.58 3.44-7.58 7.53v11.33c-4.13 0-7.58 3.45-7.58 7.62v56.68c0 4.08 3.45 7.53 7.58 7.53h86.85c4.22 0 7.57-3.44 7.57-7.52v-1.36l9.25-43.8c.56-2.9 0-5.72-1.9-7.98zm-98-22.5c0-2.08 1.67-3.7 3.8-3.7h33l8.9 10.5c.34.64.9.82 1.46.82h22.73c2.46 0 4.46 1.45 5.24 3.72h-75.14v-11.33zm86.85 75.64c0 2.08-1.67 3.72-3.8 3.72h-86.84c-2.12 0-3.8-1.64-3.8-3.72V969.4c0-2.1 1.68-3.8 3.8-3.8H1163.1c2.1 0 3.78 1.7 3.78 3.8V1026.07zm9.48-46.16l-5.7 26.3v-33.1c1.68 0 3.47.8 4.58 2.08 1.12 1.36 1.45 3.1 1.12 4.72z" stroke="#000" stroke-opacity="0" stroke-width=".3"/><path d="M1104.56 973.12h-22.64c-1.22 0-1.9.8-1.9 1.9 0 1.18.68 1.9 1.9 1.9h22.64c1.1 0 1.9-.72 1.9-1.9 0-1.1-.8-1.9-1.9-1.9zM1104.56 980.74h-22.64c-1.22 0-1.9.72-1.9 1.8 0 1.2.68 1.9 1.9 1.9h22.64c1.1 0 1.9-.7 1.9-1.9 0-1.08-.8-1.8-1.9-1.8z" stroke="#000" stroke-opacity="0" stroke-width=".3"/><path d="M1035.2 1052.65h178.4v44.6h-178.4z" fill="none"/><use xlink:href="#m" transform="matrix(1,0,0,1,1035.2092238504913,1052.653155994183) translate(19.013888888888886 33.333333333333336)"/><path d="M1717.63 972.94c-1.9-2.27-4.46-3.54-7.36-3.54 0-4.17-3.35-7.62-7.58-7.62h-3.92c-.9-4.35-4.68-7.53-9.25-7.53h-21.74l-8.93-10.6c-.33-.55-.9-.73-1.45-.73h-34c-4.24 0-7.58 3.44-7.58 7.53v11.33c-4.13 0-7.6 3.45-7.6 7.62v56.68c0 4.08 3.47 7.53 7.6 7.53h86.85c4.22 0 7.57-3.44 7.57-7.52v-1.36l9.25-43.8c.56-2.9 0-5.72-1.9-7.98zm-98-22.5c0-2.08 1.67-3.7 3.8-3.7h33l8.9 10.5c.34.64.9.82 1.46.82h22.73c2.45 0 4.46 1.45 5.24 3.72h-75.14v-11.33zm86.85 75.64c0 2.08-1.67 3.72-3.8 3.72h-86.84c-2.12 0-3.8-1.64-3.8-3.72V969.4c0-2.1 1.68-3.8 3.8-3.8H1702.7c2.1 0 3.78 1.7 3.78 3.8V1026.07zm9.47-46.16l-5.68 26.3v-33.1c1.67 0 3.45.8 4.57 2.08 1.1 1.36 1.45 3.1 1.1 4.72z" stroke="#000" stroke-opacity="0" stroke-width=".3"/><path d="M1644.15 973.12h-22.63c-1.22 0-1.9.8-1.9 1.9 0 1.18.68 1.9 1.9 1.9h22.63c1.12 0 1.9-.72 1.9-1.9 0-1.1-.78-1.9-1.9-1.9zM1644.15 980.74h-22.63c-1.22 0-1.9.72-1.9 1.8 0 1.2.68 1.9 1.9 1.9h22.63c1.12 0 1.9-.7 1.9-1.9 0-1.08-.78-1.8-1.9-1.8z" stroke="#000" stroke-opacity="0" stroke-width=".3"/><path d="M1574.8 1052.65h178.4v44.6h-178.4z" fill="none"/><use xlink:href="#n" transform="matrix(1,0,0,1,1574.8076519472004,1052.653155994183) translate(20.576388888888886 33.333333333333336)"/><path d="M1358.5 1332.8l-23.02-23.08s-.63-.66-1.8-.66h-61.67c-1.24 0-2.3 1-2.3 2.34v106.8c0 1.34 1.06 2.35 2.3 2.35h84.88c1.25 0 2.32-1 2.32-2.35v-83.73c0-.44-.1-1.1-.7-1.67zm-7.17-.67h-15.22v-15.16l15.23 15.16zm3.22 83.73h-80.2v-102.12h57.2v20.73c0 1.23.98 2.23 2.23 2.23h20.77v79.16z" stroke="#000" stroke-opacity="0" stroke-width=".31"/><path d="M1285.35 1370.82l16.3 7.7v-4.9l-10.75-5.14 10.74-5.02v-4.9l-16.3 7.7v4.56zM1305.04 1385.54h4.75l14.04-30.77h-4.74l-14.06 30.77zM1327.25 1363.46l10.74 5.02-10.75 5.13v4.9l16.3-7.68v-4.57l-16.3-7.7v4.9z" stroke="#000" stroke-opacity="0" stroke-width=".31"/><path d="M1230.3 1437h178.4v44.6h-178.4z" fill="none"/><use xlink:href="#o" transform="matrix(1,0,0,1,1230.3149606299212,1437.007874015748) translate(8.597222222222229 33.333333333333336)"/><use xlink:href="#p" transform="matrix(1,0,0,1,1230.3149606299212,1437.007874015748) translate(-55.06018518518519 83.33333333333334)"/><path d="M1700.83 1332.8l-23-23.08s-.63-.66-1.8-.66h-61.67c-1.26 0-2.33 1-2.33 2.34v106.8c0 1.34 1.07 2.35 2.33 2.35h84.86c1.25 0 2.33-1 2.33-2.35v-83.73c0-.44-.1-1.1-.72-1.67zm-7.16-.67h-15.22v-15.16l15.22 15.16zm3.22 83.73h-80.22v-102.12h57.2v20.73c0 1.23 1 2.23 2.24 2.23h20.77v79.16z" stroke="#0c7cba" stroke-width=".31"/><path d="M1627.7 1370.82l16.3 7.7v-4.9l-10.75-5.14 10.74-5.02v-4.9l-16.3 7.7v4.56zM1647.4 1385.54h4.73l14.06-30.77h-4.76l-14.05 30.77zM1669.6 1363.46l10.73 5.02-10.74 5.13v4.9l16.28-7.68v-4.57l-16.3-7.7v4.9z" stroke="#0c7cba" stroke-width=".31"/><path d="M1572.66 1437h178.38v44.6h-178.38z" fill="none"/><use xlink:href="#q" transform="matrix(1,0,0,1,1572.6598021392902,1437.007874015748) translate(-29.655092592592595 33.333333333333336)"/><path d="M1946.3 1380.4l13.08 6.14v-4l-8.64-4.03 8.64-4v-3.9l-13.07 6.13v3.68zM1962.04 1392.12h3.77l11.3-24.53h-3.87l-11.2 24.52zM1979.77 1374.5l8.64 4-8.63 4.03v4l12.96-6.12v-3.67l-12.96-6.13v3.9z" stroke="#000" stroke-opacity="0" stroke-width=".31"/><path d="M2043.47 1328.12l-18.4-18.4c-.43-.44-1.1-.66-1.65-.66h-49.3c-1.33 0-2.44 1.1-2.44 2.34v19.17h-36c-1.23 0-2.34 1.12-2.34 2.34v85.3c0 1.23 1.1 2.35 2.33 2.35h67.7c1.32 0 2.43-1.12 2.43-2.35v-19.17h36c1.23 0 2.34-1.12 2.34-2.34v-66.9c0-.68-.23-1.23-.67-1.68zm-17.73-10.93l10.3 10.25h-10.3v-10.26zm-24.7 98.55h-62.93v-80.38h44.55v15.94c0 1.35 1.1 2.46 2.32 2.46h16.07v62zm-13.63-77.04l10.2 10.27h-10.2v-10.26zm51.97 55.53h-33.57v-42.92c0-.55-.33-1.22-.77-1.66l-18.28-18.4c-.45-.33-1.1-.67-1.78-.67h-8.53v-16.72h44.54v15.94c0 1.33 1.1 2.45 2.44 2.45h15.95v61.98z" stroke="#000" stroke-opacity="0" stroke-width=".31"/><path d="M1899.55 1440.74h178.38v44.6h-178.38z" fill="none"/><use xlink:href="#r" transform="matrix(1,0,0,1,1899.5479471306642,1440.7363234382149) translate(72.13888888888889 33.333333333333336)"/><path d="M533.42 94.56H213.3c-3.3 0-6 2.68-6 6v181.47" stroke="#c92d39" stroke-width="4" fill="none"/><path d="M535.42 96.56h-2.06v-4h2.06z" fill="#c92d39"/><path d="M207.3 298.3l-4.63-14.27h9.27z" stroke="#c92d39" stroke-width="4" fill="#c92d39"/><path d="M647.13 94.56H935.4c3.33 0 6 2.68 6 6v181.47" stroke="#c92d39" stroke-width="4" fill="none"/><path d="M647.18 96.56h-2.47l.85-4h1.63z" fill="#c92d39"/><path d="M941.4 298.3l-4.62-14.27h9.27z" stroke="#c92d39" stroke-width="4" fill="#c92d39"/><path d="M997.38 343.3h404.47c3.32 0 6 2.67 6 6v254.87" stroke="#c92d39" stroke-width="4" fill="none"/><path d="M997.44 345.3h-2.48l.85-4h1.64z" fill="#c92d39"/><path d="M1407.85 620.43l-4.63-14.26h9.27z" stroke="#c92d39" stroke-width="4" fill="#c92d39"/><path d="M941.4 390.63V598.7" stroke="#c92d39" stroke-width="4" fill="none"/><path d="M943.4 390.68h-4v-2.05h4z" fill="#c92d39"/><path d="M941.4 614.95l-4.63-14.26h9.27z" stroke="#c92d39" stroke-width="4" fill="#c92d39"/><path d="M883.67 343.3H567.63c-3.3 0-6 2.67-6 6v254.87" stroke="#c92d39" stroke-width="4" fill="none"/><path d="M885.67 345.3h-2.05v-4h2.05z" fill="#c92d39"/><path d="M561.63 620.43L557 606.17h9.27z" stroke="#c92d39" stroke-width="4" fill="#c92d39"/><path d="M1350.1 665.42h-219.7c-3.3 0-6 2.7-6 6v255.6" stroke="#c92d39" stroke-width="4" fill="none"/><path d="M1352.1 667.42h-2.04v-4h2.05z" fill="#c92d39"/><path d="M1124.4 943.27l-4.63-14.26h9.27z" stroke="#c92d39" stroke-width="4" fill="#c92d39"/><path d="M1463.82 665.42H1658c3.3 0 6 2.7 6 6v255.6" stroke="#c92d39" stroke-width="4" fill="none"/><path d="M1463.87 667.42h-2.47l.84-4h1.63z" fill="#c92d39"/><path d="M1664 943.27l-4.64-14.26h9.28z" stroke="#c92d39" stroke-width="4" fill="#c92d39"/><path d="M1606.25 988.26h-285.8c-3.32 0-6 2.7-6 6v292.06" stroke="#c92d39" stroke-width="4" fill="none"/><path d="M1608.25 990.26h-2.05v-4h2.05z" fill="#c92d39"/><path d="M1314.44 1302.58l-4.63-14.26h9.28z" stroke="#c92d39" stroke-width="4" fill="#c92d39"/><path d="M1664 1035.6v250.56" stroke="#c92d39" stroke-width="4" fill="none"/><path d="M1666 1035.66h-4v-2.05h4z" fill="#c92d39"/><path d="M1664 1302.43l-4.62-14.27h9.27z" stroke="#c92d39" stroke-width="4" fill="#c92d39"/><path d="M1719.97 988.26h262.77c3.3 0 6 2.7 6 6v292.06" stroke="#c92d39" stroke-width="4" fill="none"/><path d="M1720.02 990.26h-2.47l.84-4h1.62z" fill="#c92d39"/><path d="M1988.74 1302.58l-4.64-14.26h9.28z" stroke="#c92d39" stroke-width="4" fill="#c92d39"/><path d="M807.1-196.85h240v60h-240z" fill="none"/><use xlink:href="#s" transform="matrix(1,0,0,1,807.0866141732283,-196.8503937007875) translate(42.56944444444446 38.333333333333336)"/><path d="M661.66-148.88l-18.15-75.07c-.44-.8-1.2-1.48-2.24-1.48h-108.3c-1.05 0-1.95.67-2.25 1.48l-18.74 76c-.15.28-.15.55-.15.82v53.95c0 1.2 1.06 2.28 2.4 2.28h145.2c1.36 0 2.4-1.07 2.4-2.28v-54.76c0-.27 0-.54-.14-.94zm-48-.14c-1.2 0-2.25 1.08-2.25 2.43v18.3c0 3.5-2.7 6.33-6 6.33h-37.34c-3.15 0-5.85-2.83-5.85-6.33v-18.3c0-1.34-1.04-2.42-2.24-2.42h-26.4l11.7-60.8h84.6l10.35 60.8h-26.54z" stroke="#000" stroke-opacity="0" stroke-width="6.03" fill="#030104"/><path d="M586.8-88.9V28.13" stroke="#c92d39" stroke-width="4" fill="none"/><path d="M588.8-88.84h-4v-2.06h4z" fill="#c92d39"/><path d="M586.8 44.4l-4.62-14.27h9.27z" stroke="#c92d39" stroke-width="4" fill="#c92d39"/><path d="M497.62-295.28H676v44.6H497.62z" fill="none"/><g><use xlink:href="#t" transform="matrix(1,0,0,1,497.61895387989694,-295.27559055118115) translate(68.72453703703704 33.333333333333336)"/></g><defs><path d="M199 0l-22-63H83L61 0H9l90-248h61L250 0h-51zm-33-102l-36-108c-10 38-24 72-36 108h72" id="u"/><path d="M182-130c37 4 62 22 62 59C244 23 116-4 24 0v-248c84 5 203-23 205 63 0 31-19 50-47 55zM76-148c40-3 101 13 101-30 0-44-60-28-101-31v61zm0 110c48-3 116 14 116-37 0-48-69-32-116-35v72" id="v"/><path d="M169-182c-1-43-94-46-97-3 18 66 151 10 154 114 3 95-165 93-204 36-6-8-10-19-12-30l50-8c3 46 112 56 116 5-17-69-150-10-154-114-4-87 153-88 188-35 5 8 8 18 10 28" id="w"/><path d="M140-251c80 0 125 45 125 126S219 4 139 4C58 4 15-44 15-125s44-126 125-126zm-1 214c52 0 73-35 73-88 0-50-21-86-72-86-52 0-73 35-73 86s22 88 72 88" id="x"/><path d="M24 0v-248h52v208h133V0H24" id="y"/><path d="M238-95c0 69-44 99-111 99C63 4 22-25 22-93v-155h51v151c-1 38 19 59 55 60 90 1 49-130 58-211h52v153" id="z"/><path d="M136-208V0H84v-208H4v-40h212v40h-80" id="A"/><path d="M24 0v-248h195v40H76v63h132v40H76v65h150V0H24" id="B"/><g id="a"><use transform="matrix(0.11574074074074073,0,0,0.11574074074074073,0,0)" xlink:href="#u"/><use transform="matrix(0.11574074074074073,0,0,0.11574074074074073,29.976851851851848,0)" xlink:href="#v"/><use transform="matrix(0.11574074074074073,0,0,0.11574074074074073,59.953703703703695,0)" xlink:href="#w"/><use transform="matrix(0.11574074074074073,0,0,0.11574074074074073,87.73148148148147,0)" xlink:href="#x"/><use transform="matrix(0.11574074074074073,0,0,0.11574074074074073,120.13888888888887,0)" xlink:href="#y"/><use transform="matrix(0.11574074074074073,0,0,0.11574074074074073,145.4861111111111,0)" xlink:href="#z"/><use transform="matrix(0.11574074074074073,0,0,0.11574074074074073,175.46296296296293,0)" xlink:href="#A"/><use transform="matrix(0.11574074074074073,0,0,0.11574074074074073,200.81018518518516,0)" xlink:href="#B"/></g><path d="M24-248c93 1 206-16 204 79-1 75-69 88-152 82V0H24v-248zm52 121c47 0 100 7 100-41 0-47-54-39-100-39v80" id="C"/><path d="M186 0v-106H76V0H24v-248h52v99h110v-99h50V0h-50" id="D"/><g id="b"><use transform="matrix(0.11574074074074073,0,0,0.11574074074074073,0,0)" xlink:href="#C"/><use transform="matrix(0.11574074074074073,0,0,0.11574074074074073,24.652777777777775,0)" xlink:href="#u"/><use transform="matrix(0.11574074074074073,0,0,0.11574074074074073,51.50462962962962,0)" xlink:href="#A"/><use transform="matrix(0.11574074074074073,0,0,0.11574074074074073,76.85185185185183,0)" xlink:href="#D"/></g><path d="M240-174c0 40-23 61-54 70L253 0h-59l-57-94H76V0H24v-248c93 4 217-23 216 74zM76-134c48-2 112 12 112-38 0-48-66-32-112-35v73" id="E"/><path d="M24 0v-248h52V0H24" id="F"/><path d="M147 0H94L2-248h55l64 206c17-72 42-137 63-206h54" id="G"/><g id="c"><use transform="matrix(0.11574074074074073,0,0,0.11574074074074073,0,0)" xlink:href="#E"/><use transform="matrix(0.11574074074074073,0,0,0.11574074074074073,29.976851851851848,0)" xlink:href="#B"/><use transform="matrix(0.11574074074074073,0,0,0.11574074074074073,57.75462962962962,0)" xlink:href="#y"/><use transform="matrix(0.11574074074074073,0,0,0.11574074074074073,83.10185185185183,0)" xlink:href="#u"/><use transform="matrix(0.11574074074074073,0,0,0.11574074074074073,109.95370370370368,0)" xlink:href="#A"/><use transform="matrix(0.11574074074074073,0,0,0.11574074074074073,135.3009259259259,0)" xlink:href="#F"/><use transform="matrix(0.11574074074074073,0,0,0.11574074074074073,146.87499999999997,0)" xlink:href="#G"/><use transform="matrix(0.11574074074074073,0,0,0.11574074074074073,174.65277777777774,0)" xlink:href="#B"/></g><path d="M24-248c120-7 223 5 221 122C244-46 201 0 124 0H24v-248zM76-40c74 7 117-18 117-86 0-67-45-88-117-82v168" id="H"/><path d="M67-125c0 53 21 87 73 88 37 1 54-22 65-47l45 17C233-25 199 4 140 4 58 4 20-42 15-125 8-235 124-281 211-232c18 10 29 29 36 50l-46 12c-8-25-30-41-62-41-52 0-71 34-72 86" id="I"/><path d="M146-102V0H94v-102L6-248h54l60 105 60-105h54" id="J"/><g id="d"><use transform="matrix(0.11574074074074073,0,0,0.11574074074074073,0,0)" xlink:href="#H"/><use transform="matrix(0.11574074074074073,0,0,0.11574074074074073,29.976851851851848,0)" xlink:href="#F"/><use transform="matrix(0.11574074074074073,0,0,0.11574074074074073,41.550925925925924,0)" xlink:href="#E"/><use transform="matrix(0.11574074074074073,0,0,0.11574074074074073,71.52777777777777,0)" xlink:href="#B"/><use transform="matrix(0.11574074074074073,0,0,0.11574074074074073,99.30555555555554,0)" xlink:href="#I"/><use transform="matrix(0.11574074074074073,0,0,0.11574074074074073,129.2824074074074,0)" xlink:href="#A"/><use transform="matrix(0.11574074074074073,0,0,0.11574074074074073,153.81944444444443,0)" xlink:href="#x"/><use transform="matrix(0.11574074074074073,0,0,0.11574074074074073,186.22685185185185,0)" xlink:href="#E"/><use transform="matrix(0.11574074074074073,0,0,0.11574074074074073,214.69907407407408,0)" xlink:href="#J"/></g><path d="M76-208v77h127v40H76V0H24v-248h183v40H76" id="K"/><g id="e"><use transform="matrix(0.11574074074074073,0,0,0.11574074074074073,0,0)" xlink:href="#K"/><use transform="matrix(0.11574074074074073,0,0,0.11574074074074073,25.347222222222218,0)" xlink:href="#F"/><use transform="matrix(0.11574074074074073,0,0,0.11574074074074073,36.92129629629629,0)" xlink:href="#y"/><use transform="matrix(0.11574074074074073,0,0,0.11574074074074073,62.26851851851851,0)" xlink:href="#B"/></g><path d="M85-194c31 0 48 13 60 33l-1-100h32l1 261h-30c-2-10 0-23-3-31C134-8 116 4 85 4 32 4 16-35 15-94c0-66 23-100 70-100zm9 24c-40 0-46 34-46 75 0 40 6 74 45 74 42 0 51-32 51-76 0-42-9-74-50-73" id="L"/><path d="M135-143c-3-34-86-38-87 0 15 53 115 12 119 90S17 21 10-45l28-5c4 36 97 45 98 0-10-56-113-15-118-90-4-57 82-63 122-42 12 7 21 19 24 35" id="M"/><path d="M16-82v-28h88v28H16" id="N"/><path d="M115-194c55 1 70 41 70 98S169 2 115 4C84 4 66-9 55-30l1 105H24l-1-265h31l2 30c10-21 28-34 59-34zm-8 174c40 0 45-34 45-75s-6-73-45-74c-42 0-51 32-51 76 0 43 10 73 51 73" id="O"/><path d="M114-163C36-179 61-72 57 0H25l-1-190h30c1 12-1 29 2 39 6-27 23-49 58-41v29" id="P"/><path d="M100-194c63 0 86 42 84 106H49c0 40 14 67 53 68 26 1 43-12 49-29l28 8c-11 28-37 45-77 45C44 4 14-33 15-96c1-61 26-98 85-98zm52 81c6-60-76-77-97-28-3 7-6 17-6 28h103" id="Q"/><path d="M96-169c-40 0-48 33-48 73s9 75 48 75c24 0 41-14 43-38l32 2c-6 37-31 61-74 61-59 0-76-41-82-99-10-93 101-131 147-64 4 7 5 14 7 22l-32 3c-4-21-16-35-41-35" id="R"/><path d="M100-194c62-1 85 37 85 99 1 63-27 99-86 99S16-35 15-95c0-66 28-99 85-99zM99-20c44 1 53-31 53-75 0-43-8-75-51-75s-53 32-53 75 10 74 51 75" id="S"/><path d="M84 4C-5 8 30-112 23-190h32v120c0 31 7 50 39 49 72-2 45-101 50-169h31l1 190h-30c-1-10 1-25-2-33-11 22-28 36-60 37" id="T"/><path d="M101-251c82-7 93 87 43 132L82-64C71-53 59-42 53-27h129V0H18c2-99 128-94 128-182 0-28-16-43-45-43s-46 15-49 41l-32-3c6-41 34-60 81-64" id="U"/><path d="M101-251c68 0 85 55 85 127S166 4 100 4C33 4 14-52 14-124c0-73 17-127 87-127zm-1 229c47 0 54-49 54-102s-4-102-53-102c-51 0-55 48-55 102 0 53 5 102 54 102" id="V"/><path d="M27 0v-27h64v-190l-56 39v-29l58-41h29v221h61V0H27" id="W"/><g id="f"><use transform="matrix(0.11574074074074073,0,0,0.11574074074074073,0,0)" xlink:href="#L"/><use transform="matrix(0.11574074074074073,0,0,0.11574074074074073,23.148148148148145,0)" xlink:href="#M"/><use transform="matrix(0.11574074074074073,0,0,0.11574074074074073,43.98148148148148,0)" xlink:href="#N"/><use transform="matrix(0.11574074074074073,0,0,0.11574074074074073,57.754629629629626,0)" xlink:href="#O"/><use transform="matrix(0.11574074074074073,0,0,0.11574074074074073,80.90277777777777,0)" xlink:href="#P"/><use transform="matrix(0.11574074074074073,0,0,0.11574074074074073,94.67592592592592,0)" xlink:href="#Q"/><use transform="matrix(0.11574074074074073,0,0,0.11574074074074073,117.82407407407408,0)" xlink:href="#O"/><use transform="matrix(0.11574074074074073,0,0,0.11574074074074073,140.97222222222223,0)" xlink:href="#N"/><use transform="matrix(0.11574074074074073,0,0,0.11574074074074073,154.74537037037038,0)" xlink:href="#R"/><use transform="matrix(0.11574074074074073,0,0,0.11574074074074073,175.57870370370372,0)" xlink:href="#S"/><use transform="matrix(0.11574074074074073,0,0,0.11574074074074073,198.72685185185188,0)" xlink:href="#T"/><use transform="matrix(0.11574074074074073,0,0,0.11574074074074073,221.87500000000003,0)" xlink:href="#P"/><use transform="matrix(0.11574074074074073,0,0,0.11574074074074073,235.64814814814818,0)" xlink:href="#M"/><use transform="matrix(0.11574074074074073,0,0,0.11574074074074073,256.4814814814815,0)" xlink:href="#Q"/><use transform="matrix(0.11574074074074073,0,0,0.11574074074074073,279.6296296296297,0)" xlink:href="#N"/><use transform="matrix(0.11574074074074073,0,0,0.11574074074074073,293.4027777777778,0)" xlink:href="#U"/><use transform="matrix(0.11574074074074073,0,0,0.11574074074074073,316.550925925926,0)" xlink:href="#V"/><use transform="matrix(0.11574074074074073,0,0,0.11574074074074073,339.69907407407413,0)" xlink:href="#U"/><use transform="matrix(0.11574074074074073,0,0,0.11574074074074073,362.8472222222223,0)" xlink:href="#W"/></g><path d="M106-169C34-169 62-67 57 0H25v-261h32l-1 103c12-21 28-36 61-36 89 0 53 116 60 194h-32v-121c2-32-8-49-39-48" id="X"/><path d="M210-169c-67 3-38 105-44 169h-31v-121c0-29-5-50-35-48C34-165 62-65 56 0H25l-1-190h30c1 10-1 24 2 32 10-44 99-50 107 0 11-21 27-35 58-36 85-2 47 119 55 194h-31v-121c0-29-5-49-35-48" id="Y"/><g id="g"><use transform="matrix(0.11574074074074073,0,0,0.11574074074074073,0,0)" xlink:href="#X"/><use transform="matrix(0.11574074074074073,0,0,0.11574074074074073,23.148148148148145,0)" xlink:href="#S"/><use transform="matrix(0.11574074074074073,0,0,0.11574074074074073,46.29629629629629,0)" xlink:href="#Y"/><use transform="matrix(0.11574074074074073,0,0,0.11574074074074073,80.90277777777777,0)" xlink:href="#Q"/></g><path d="M206 0h-36l-40-164L89 0H53L-1-190h32L70-26l43-164h34l41 164 42-164h31" id="Z"/><path d="M143 0L79-87 56-68V0H24v-261h32v163l83-92h37l-77 82L181 0h-38" id="aa"/><path d="M141-36C126-15 110 5 73 4 37 3 15-17 15-53c-1-64 63-63 125-63 3-35-9-54-41-54-24 1-41 7-42 31l-33-3c5-37 33-52 76-52 45 0 72 20 72 64v82c-1 20 7 32 28 27v20c-31 9-61-2-59-35zM48-53c0 20 12 33 32 33 41-3 63-29 60-74-43 2-92-5-92 41" id="ab"/><g id="h"><use transform="matrix(0.11574074074074073,0,0,0.11574074074074073,0,0)" xlink:href="#L"/><use transform="matrix(0.11574074074074073,0,0,0.11574074074074073,23.148148148148145,0)" xlink:href="#M"/><use transform="matrix(0.11574074074074073,0,0,0.11574074074074073,43.98148148148148,0)" xlink:href="#N"/><use transform="matrix(0.11574074074074073,0,0,0.11574074074074073,57.754629629629626,0)" xlink:href="#O"/><use transform="matrix(0.11574074074074073,0,0,0.11574074074074073,80.90277777777777,0)" xlink:href="#P"/><use transform="matrix(0.11574074074074073,0,0,0.11574074074074073,94.67592592592592,0)" xlink:href="#Q"/><use transform="matrix(0.11574074074074073,0,0,0.11574074074074073,117.82407407407408,0)" xlink:href="#O"/><use transform="matrix(0.11574074074074073,0,0,0.11574074074074073,140.97222222222223,0)" xlink:href="#N"/><use transform="matrix(0.11574074074074073,0,0,0.11574074074074073,154.74537037037038,0)" xlink:href="#Z"/><use transform="matrix(0.11574074074074073,0,0,0.11574074074074073,184.72222222222223,0)" xlink:href="#S"/><use transform="matrix(0.11574074074074073,0,0,0.11574074074074073,207.87037037037038,0)" xlink:href="#P"/><use transform="matrix(0.11574074074074073,0,0,0.11574074074074073,221.64351851851853,0)" xlink:href="#aa"/><use transform="matrix(0.11574074074074073,0,0,0.11574074074074073,242.47685185185188,0)" xlink:href="#M"/><use transform="matrix(0.11574074074074073,0,0,0.11574074074074073,263.3101851851852,0)" xlink:href="#O"/><use transform="matrix(0.11574074074074073,0,0,0.11574074074074073,286.45833333333337,0)" xlink:href="#ab"/><use transform="matrix(0.11574074074074073,0,0,0.11574074074074073,309.6064814814815,0)" xlink:href="#R"/><use transform="matrix(0.11574074074074073,0,0,0.11574074074074073,330.43981481481484,0)" xlink:href="#Q"/></g><g id="i"><use transform="matrix(0.11574074074074073,0,0,0.11574074074074073,0,0)" xlink:href="#Z"/><use transform="matrix(0.11574074074074073,0,0,0.11574074074074073,29.976851851851848,0)" xlink:href="#Q"/><use transform="matrix(0.11574074074074073,0,0,0.11574074074074073,53.12499999999999,0)" xlink:href="#Q"/><use transform="matrix(0.11574074074074073,0,0,0.11574074074074073,76.27314814814814,0)" xlink:href="#aa"/></g><path d="M155-56V0h-30v-56H8v-25l114-167h33v167h35v25h-35zm-30-156c-27 46-58 90-88 131h88v-131" id="ac"/><use transform="matrix(0.11574074074074073,0,0,0.11574074074074073,0,0)" xlink:href="#ac" id="j"/><path d="M54-142c48-35 137-8 131 61C196 18 31 33 14-55l32-4c7 23 22 37 52 37 35-1 51-22 54-58 4-55-73-65-99-34H22l8-134h141v27H59" id="ad"/><use transform="matrix(0.11574074074074073,0,0,0.11574074074074073,0,0)" xlink:href="#ad" id="k"/><path d="M110-160c48 1 74 30 74 79 0 53-28 85-80 85-65 0-83-55-86-122-5-90 50-162 133-122 14 7 22 21 27 39l-31 6c-5-40-67-38-82-6-9 19-15 44-15 74 11-20 30-34 60-33zm-7 138c34 0 49-23 49-58s-16-56-50-56c-29 0-50 16-49 49 1 36 15 65 50 65" id="ae"/><use transform="matrix(0.11574074074074073,0,0,0.11574074074074073,0,0)" xlink:href="#ae" id="l"/><path d="M185-189c-5-48-123-54-124 2 14 75 158 14 163 119 3 78-121 87-175 55-17-10-28-26-33-46l33-7c5 56 141 63 141-1 0-78-155-14-162-118-5-82 145-84 179-34 5 7 8 16 11 25" id="af"/><path d="M30 0v-248h33v221h125V0H30" id="ag"/><path d="M232-93c-1 65-40 97-104 97C67 4 28-28 28-90v-158h33c8 89-33 224 67 224 102 0 64-133 71-224h33v155" id="ah"/><g id="m"><use transform="matrix(0.11574074074074073,0,0,0.11574074074074073,0,0)" xlink:href="#af"/><use transform="matrix(0.11574074074074073,0,0,0.11574074074074073,27.777777777777775,0)" xlink:href="#ag"/><use transform="matrix(0.11574074074074073,0,0,0.11574074074074073,50.925925925925924,0)" xlink:href="#ah"/><use transform="matrix(0.11574074074074073,0,0,0.11574074074074073,80.90277777777777,0)" xlink:href="#N"/><use transform="matrix(0.11574074074074073,0,0,0.11574074074074073,94.67592592592592,0)" xlink:href="#W"/><use transform="matrix(0.11574074074074073,0,0,0.11574074074074073,117.82407407407408,0)" xlink:href="#V"/></g><g id="n"><use transform="matrix(0.11574074074074073,0,0,0.11574074074074073,0,0)" xlink:href="#af"/><use transform="matrix(0.11574074074074073,0,0,0.11574074074074073,27.777777777777775,0)" xlink:href="#ag"/><use transform="matrix(0.11574074074074073,0,0,0.11574074074074073,50.925925925925924,0)" xlink:href="#ah"/><use transform="matrix(0.11574074074074073,0,0,0.11574074074074073,80.90277777777777,0)" xlink:href="#N"/><use transform="matrix(0.11574074074074073,0,0,0.11574074074074073,94.67592592592592,0)" xlink:href="#W"/><use transform="matrix(0.11574074074074073,0,0,0.11574074074074073,114.69907407407408,0)" xlink:href="#W"/></g><path d="M117-194c89-4 53 116 60 194h-32v-121c0-31-8-49-39-48C34-167 62-67 57 0H25l-1-190h30c1 10-1 24 2 32 11-22 29-35 61-36" id="ai"/><path d="M24-231v-30h32v30H24zM24 0v-190h32V0H24" id="aj"/><path d="M177-190C167-65 218 103 67 71c-23-6-38-20-44-43l32-5c15 47 100 32 89-28v-30C133-14 115 1 83 1 29 1 15-40 15-95c0-56 16-97 71-98 29-1 48 16 59 35 1-10 0-23 2-32h30zM94-22c36 0 50-32 50-73 0-42-14-75-50-75-39 0-46 34-46 75s6 73 46 73" id="ak"/><g id="o"><use transform="matrix(0.11574074074074073,0,0,0.11574074074074073,0,0)" xlink:href="#ag"/><use transform="matrix(0.11574074074074073,0,0,0.11574074074074073,23.148148148148145,0)" xlink:href="#Q"/><use transform="matrix(0.11574074074074073,0,0,0.11574074074074073,46.29629629629629,0)" xlink:href="#ab"/><use transform="matrix(0.11574074074074073,0,0,0.11574074074074073,69.44444444444443,0)" xlink:href="#P"/><use transform="matrix(0.11574074074074073,0,0,0.11574074074074073,83.21759259259258,0)" xlink:href="#ai"/><use transform="matrix(0.11574074074074073,0,0,0.11574074074074073,106.36574074074073,0)" xlink:href="#aj"/><use transform="matrix(0.11574074074074073,0,0,0.11574074074074073,115.50925925925925,0)" xlink:href="#ai"/><use transform="matrix(0.11574074074074073,0,0,0.11574074074074073,138.6574074074074,0)" xlink:href="#ak"/></g><path d="M190 0L58-211 59 0H30v-248h39L202-35l-2-213h31V0h-41" id="al"/><path d="M59-47c-2 24 18 29 38 22v24C64 9 27 4 27-40v-127H5v-23h24l9-43h21v43h35v23H59v120" id="am"/><path d="M115-194c53 0 69 39 70 98 0 66-23 100-70 100C84 3 66-7 56-30L54 0H23l1-261h32v101c10-23 28-34 59-34zm-8 174c40 0 45-34 45-75 0-40-5-75-45-74-42 0-51 32-51 76 0 43 10 73 51 73" id="an"/><path d="M33 0v-38h34V0H33" id="ao"/><path d="M179-190L93 31C79 59 56 82 12 73V49c39 6 53-20 64-50L1-190h34L92-34l54-156h33" id="ap"/><g id="p"><use transform="matrix(0.11574074074074073,0,0,0.11574074074074073,0,0)" xlink:href="#al"/><use transform="matrix(0.11574074074074073,0,0,0.11574074074074073,29.976851851851848,0)" xlink:href="#S"/><use transform="matrix(0.11574074074074073,0,0,0.11574074074074073,53.12499999999999,0)" xlink:href="#am"/><use transform="matrix(0.11574074074074073,0,0,0.11574074074074073,64.69907407407406,0)" xlink:href="#Q"/><use transform="matrix(0.11574074074074073,0,0,0.11574074074074073,87.8472222222222,0)" xlink:href="#an"/><use transform="matrix(0.11574074074074073,0,0,0.11574074074074073,110.99537037037035,0)" xlink:href="#S"/><use transform="matrix(0.11574074074074073,0,0,0.11574074074074073,134.1435185185185,0)" xlink:href="#S"/><use transform="matrix(0.11574074074074073,0,0,0.11574074074074073,157.29166666666666,0)" xlink:href="#aa"/><use transform="matrix(0.11574074074074073,0,0,0.11574074074074073,178.125,0)" xlink:href="#ao"/><use transform="matrix(0.11574074074074073,0,0,0.11574074074074073,189.69907407407408,0)" xlink:href="#aj"/><use transform="matrix(0.11574074074074073,0,0,0.11574074074074073,198.84259259259258,0)" xlink:href="#O"/><use transform="matrix(0.11574074074074073,0,0,0.11574074074074073,221.99074074074073,0)" xlink:href="#ap"/><use transform="matrix(0.11574074074074073,0,0,0.11574074074074073,242.8240740740741,0)" xlink:href="#ai"/><use transform="matrix(0.11574074074074073,0,0,0.11574074074074073,265.97222222222223,0)" xlink:href="#an"/></g><path fill="#0c7cba" d="M85-194c31 0 48 13 60 33l-1-100h32l1 261h-30c-2-10 0-23-3-31C134-8 116 4 85 4 32 4 16-35 15-94c0-66 23-100 70-100zm9 24c-40 0-46 34-46 75 0 40 6 74 45 74 42 0 51-32 51-76 0-42-9-74-50-73" id="aq"/><path fill="#0c7cba" d="M100-194c62-1 85 37 85 99 1 63-27 99-86 99S16-35 15-95c0-66 28-99 85-99zM99-20c44 1 53-31 53-75 0-43-8-75-51-75s-53 32-53 75 10 74 51 75" id="ar"/><path fill="#0c7cba" d="M96-169c-40 0-48 33-48 73s9 75 48 75c24 0 41-14 43-38l32 2c-6 37-31 61-74 61-59 0-76-41-82-99-10-93 101-131 147-64 4 7 5 14 7 22l-32 3c-4-21-16-35-41-35" id="as"/><path fill="#0c7cba" d="M84 4C-5 8 30-112 23-190h32v120c0 31 7 50 39 49 72-2 45-101 50-169h31l1 190h-30c-1-10 1-25-2-33-11 22-28 36-60 37" id="at"/><path fill="#0c7cba" d="M210-169c-67 3-38 105-44 169h-31v-121c0-29-5-50-35-48C34-165 62-65 56 0H25l-1-190h30c1 10-1 24 2 32 10-44 99-50 107 0 11-21 27-35 58-36 85-2 47 119 55 194h-31v-121c0-29-5-49-35-48" id="au"/><path fill="#0c7cba" d="M100-194c63 0 86 42 84 106H49c0 40 14 67 53 68 26 1 43-12 49-29l28 8c-11 28-37 45-77 45C44 4 14-33 15-96c1-61 26-98 85-98zm52 81c6-60-76-77-97-28-3 7-6 17-6 28h103" id="av"/><path fill="#0c7cba" d="M117-194c89-4 53 116 60 194h-32v-121c0-31-8-49-39-48C34-167 62-67 57 0H25l-1-190h30c1 10-1 24 2 32 11-22 29-35 61-36" id="aw"/><path fill="#0c7cba" d="M59-47c-2 24 18 29 38 22v24C64 9 27 4 27-40v-127H5v-23h24l9-43h21v43h35v23H59v120" id="ax"/><path fill="#0c7cba" d="M33 0v-38h34V0H33" id="ay"/><path fill="#0c7cba" d="M141 0L90-78 38 0H4l68-98-65-92h35l48 74 47-74h35l-64 92 68 98h-35" id="az"/><g id="q"><use transform="matrix(0.11574074074074073,0,0,0.11574074074074073,0,0)" xlink:href="#aq"/><use transform="matrix(0.11574074074074073,0,0,0.11574074074074073,23.148148148148145,0)" xlink:href="#ar"/><use transform="matrix(0.11574074074074073,0,0,0.11574074074074073,46.29629629629629,0)" xlink:href="#as"/><use transform="matrix(0.11574074074074073,0,0,0.11574074074074073,67.12962962962962,0)" xlink:href="#at"/><use transform="matrix(0.11574074074074073,0,0,0.11574074074074073,90.27777777777777,0)" xlink:href="#au"/><use transform="matrix(0.11574074074074073,0,0,0.11574074074074073,124.88425925925924,0)" xlink:href="#av"/><use transform="matrix(0.11574074074074073,0,0,0.11574074074074073,148.0324074074074,0)" xlink:href="#aw"/><use transform="matrix(0.11574074074074073,0,0,0.11574074074074073,171.18055555555554,0)" xlink:href="#ax"/><use transform="matrix(0.11574074074074073,0,0,0.11574074074074073,182.75462962962962,0)" xlink:href="#ay"/><use transform="matrix(0.11574074074074073,0,0,0.11574074074074073,194.3287037037037,0)" xlink:href="#ax"/><use transform="matrix(0.11574074074074073,0,0,0.11574074074074073,205.90277777777777,0)" xlink:href="#az"/><use transform="matrix(0.11574074074074073,0,0,0.11574074074074073,226.73611111111111,0)" xlink:href="#ax"/></g><g id="r"><use transform="matrix(0.11574074074074073,0,0,0.11574074074074073,0,0)" xlink:href="#ao"/><use transform="matrix(0.11574074074074073,0,0,0.11574074074074073,11.574074074074073,0)" xlink:href="#ao"/><use transform="matrix(0.11574074074074073,0,0,0.11574074074074073,23.148148148148145,0)" xlink:href="#ao"/></g><g id="s"><use transform="matrix(0.11574074074074073,0,0,0.11574074074074073,0,0)" xlink:href="#H"/><use transform="matrix(0.11574074074074073,0,0,0.11574074074074073,29.976851851851848,0)" xlink:href="#B"/><use transform="matrix(0.11574074074074073,0,0,0.11574074074074073,57.75462962962962,0)" xlink:href="#G"/><use transform="matrix(0.11574074074074073,0,0,0.11574074074074073,85.53240740740739,0)" xlink:href="#F"/><use transform="matrix(0.11574074074074073,0,0,0.11574074074074073,97.10648148148147,0)" xlink:href="#I"/><use transform="matrix(0.11574074074074073,0,0,0.11574074074074073,127.08333333333331,0)" xlink:href="#B"/></g><path d="M212-179c-10-28-35-45-73-45-59 0-87 40-87 99 0 60 29 101 89 101 43 0 62-24 78-52l27 14C228-24 195 4 139 4 59 4 22-46 18-125c-6-104 99-153 187-111 19 9 31 26 39 46" id="aA"/><path d="M33-154v-36h34v36H33zM33 0v-36h34V0H33" id="aB"/><g id="t"><use transform="matrix(0.11574074074074073,0,0,0.11574074074074073,0,0)" xlink:href="#aA"/><use transform="matrix(0.11574074074074073,0,0,0.11574074074074073,29.976851851851848,0)" xlink:href="#aB"/></g></defs></g></svg>